# xmcd
#
# Track frame offsets:
#	150
#	25600
#	49562
#	80832
#	110092
#	134215
#	171182
#	191345
#	216355
#	247162
#
# Disc length: 3540 seconds
# Revision: 0
# Processed by: cddbd v1.5.2PL0 Copyright (c) Steve Scherf et al.
# Submitted via: dBpowerAMP V12.0
#
DISCID=940dd20a
DTITLE=Various Artist - The History of the House Sound of Chicago
DYEAR=1985
DGENRE=House
TTITLE0=Farley Jackmaster Funk and Jesse Saunders feat. Darryl Pandy - Love Can't Turn Around
TTITLE1=Denise Motto - IMNXTC
TTITLE2=Ralphi Rosario feat. Xavier Gold - You Used to Hold Me (Kenny Jammin Jason Mix)
TTITLE3=Libra Libra - I Like It
TTITLE4=Liz Torres - Can't Get Enough (Club Mix)
TTITLE5=The Housemaster Boyz - House Nation
TTITLE6=On the House - Pleasure Control (Radio Version)
TTITLE7=The Elect - I'm House
TTITLE8=Hercules - 7 Ways (Vocal Mix)
TTITLE9=Ramos - The Jackin' National Anthem
EXTD=
EXTT0=
EXTT1=
EXTT2=
EXTT3=
EXTT4=
EXTT5=
EXTT6=
EXTT7=
EXTT8=
EXTT9=
PLAYORDER=
